<mxfile host="Electron" agent="Mozilla/5.0 (X11; Linux x86_64) AppleWebKit/537.36 (KHTML, like Gecko) draw.io/25.0.2 Chrome/128.0.6613.186 Electron/32.2.7 Safari/537.36" version="25.0.2">
  <diagram id="QxI6x2kkWF_3HJUFSAka" name="Page-1">
    <mxGraphModel dx="1223" dy="727" grid="1" gridSize="10" guides="1" tooltips="1" connect="1" arrows="1" fold="1" page="1" pageScale="1" pageWidth="850" pageHeight="1100" math="0" shadow="0">
      <root>
        <mxCell id="0" />
        <mxCell id="1" parent="0" />
        <mxCell id="15" style="edgeStyle=none;html=1;exitX=1;exitY=0.5;exitDx=0;exitDy=0;entryX=0;entryY=0.5;entryDx=0;entryDy=0;fontFamily=Courier New;fontSize=15;" parent="1" source="2" target="14" edge="1">
          <mxGeometry relative="1" as="geometry" />
        </mxCell>
        <mxCell id="2" value="&lt;font style=&quot;font-size: 15px;&quot;&gt;&lt;font face=&quot;Courier New&quot; style=&quot;font-size: 15px;&quot;&gt;wemeetapp&lt;br style=&quot;font-size: 15px;&quot;&gt;XShmAttatch&lt;/font&gt;&lt;br style=&quot;font-size: 15px;&quot;&gt;&lt;/font&gt;" style="rounded=0;whiteSpace=wrap;html=1;fontSize=15;" parent="1" vertex="1">
          <mxGeometry x="120" y="360" width="120" height="80" as="geometry" />
        </mxCell>
        <mxCell id="43" style="edgeStyle=orthogonalEdgeStyle;curved=1;rounded=1;html=1;exitX=1;exitY=0.5;exitDx=0;exitDy=0;entryX=0;entryY=0.5;entryDx=0;entryDy=0;strokeColor=#000000;fontFamily=Courier New;fontSize=15;fontColor=#FF0000;endArrow=classic;endFill=1;elbow=vertical;" parent="1" source="3" target="42" edge="1">
          <mxGeometry relative="1" as="geometry" />
        </mxCell>
        <mxCell id="3" value="&lt;font style=&quot;font-size: 15px;&quot;&gt;&lt;font face=&quot;Courier New&quot; style=&quot;font-size: 15px;&quot;&gt;wemeetapp&lt;br style=&quot;font-size: 15px;&quot;&gt;XShmGetImage&lt;/font&gt;&lt;br style=&quot;font-size: 15px;&quot;&gt;&lt;/font&gt;" style="rounded=0;whiteSpace=wrap;html=1;fontSize=15;" parent="1" vertex="1">
          <mxGeometry x="120" y="520" width="120" height="80" as="geometry" />
        </mxCell>
        <mxCell id="4" value="&lt;font style=&quot;font-size: 15px;&quot;&gt;&lt;font face=&quot;Courier New&quot; style=&quot;font-size: 15px;&quot;&gt;wemeetapp&lt;br style=&quot;font-size: 15px;&quot;&gt;XShmGetImage&lt;/font&gt;&lt;br style=&quot;font-size: 15px;&quot;&gt;&lt;/font&gt;" style="rounded=0;whiteSpace=wrap;html=1;fontSize=15;" parent="1" vertex="1">
          <mxGeometry x="120" y="640" width="120" height="80" as="geometry" />
        </mxCell>
        <mxCell id="5" value="" style="endArrow=classic;html=1;fontFamily=Courier New;fontSize=15;exitX=0.5;exitY=1;exitDx=0;exitDy=0;" parent="1" source="8" edge="1">
          <mxGeometry width="50" height="50" relative="1" as="geometry">
            <mxPoint x="179.5" y="280" as="sourcePoint" />
            <mxPoint x="180" y="360" as="targetPoint" />
          </mxGeometry>
        </mxCell>
        <mxCell id="7" value="" style="endArrow=none;dashed=1;html=1;dashPattern=1 3;strokeWidth=2;fontFamily=Courier New;fontSize=14;" parent="1" edge="1">
          <mxGeometry width="50" height="50" relative="1" as="geometry">
            <mxPoint x="260" y="960" as="sourcePoint" />
            <mxPoint x="260" y="200" as="targetPoint" />
          </mxGeometry>
        </mxCell>
        <mxCell id="8" value="wemeetapp&lt;br style=&quot;font-size: 15px;&quot;&gt;thread" style="text;html=1;strokeColor=none;fillColor=none;align=center;verticalAlign=middle;whiteSpace=wrap;rounded=0;fontFamily=Courier New;fontSize=15;fontStyle=2" parent="1" vertex="1">
          <mxGeometry x="120" y="240" width="120" height="40" as="geometry" />
        </mxCell>
        <mxCell id="39" style="edgeStyle=orthogonalEdgeStyle;curved=1;rounded=1;html=1;exitX=1;exitY=0.5;exitDx=0;exitDy=0;entryX=0;entryY=0.5;entryDx=0;entryDy=0;strokeColor=#000000;fontFamily=Courier New;fontSize=15;fontColor=#FF0000;endArrow=classic;endFill=1;elbow=vertical;" parent="1" source="12" target="38" edge="1">
          <mxGeometry relative="1" as="geometry" />
        </mxCell>
        <mxCell id="12" value="&lt;font style=&quot;font-size: 15px;&quot;&gt;&lt;font face=&quot;Courier New&quot; style=&quot;font-size: 15px;&quot;&gt;wemeetapp&lt;br style=&quot;font-size: 15px;&quot;&gt;XShmDeatch&lt;/font&gt;&lt;br style=&quot;font-size: 15px;&quot;&gt;&lt;/font&gt;" style="rounded=0;whiteSpace=wrap;html=1;fontSize=15;" parent="1" vertex="1">
          <mxGeometry x="120" y="840" width="120" height="80" as="geometry" />
        </mxCell>
        <mxCell id="13" value="" style="endArrow=classic;html=1;fontFamily=Courier New;fontSize=15;entryX=0.5;entryY=0;entryDx=0;entryDy=0;" parent="1" target="12" edge="1">
          <mxGeometry width="50" height="50" relative="1" as="geometry">
            <mxPoint x="180" y="770" as="sourcePoint" />
            <mxPoint x="190" y="690" as="targetPoint" />
          </mxGeometry>
        </mxCell>
        <mxCell id="16" style="edgeStyle=orthogonalEdgeStyle;html=1;exitX=0.5;exitY=1;exitDx=0;exitDy=0;entryX=0.5;entryY=0;entryDx=0;entryDy=0;fontFamily=Courier New;fontSize=15;curved=1;" parent="1" source="14" target="3" edge="1">
          <mxGeometry relative="1" as="geometry" />
        </mxCell>
        <mxCell id="20" style="edgeStyle=orthogonalEdgeStyle;html=1;exitX=1;exitY=0.5;exitDx=0;exitDy=0;entryX=0;entryY=0.5;entryDx=0;entryDy=0;strokeColor=#FF0000;fontFamily=Courier New;fontSize=15;fontColor=#FF0000;rounded=0;endArrow=none;endFill=0;dashed=1;" parent="1" source="14" target="17" edge="1">
          <mxGeometry relative="1" as="geometry" />
        </mxCell>
        <mxCell id="14" value="&lt;font style=&quot;font-size: 15px;&quot;&gt;&lt;font face=&quot;Courier New&quot;&gt;&lt;font style=&quot;font-size: 15px;&quot;&gt;XShmAttach&lt;br style=&quot;font-size: 15px;&quot;&gt;&lt;/font&gt;Hook&lt;/font&gt;&lt;br style=&quot;font-size: 15px;&quot;&gt;&lt;/font&gt;" style="rounded=0;whiteSpace=wrap;html=1;fontSize=15;" parent="1" vertex="1">
          <mxGeometry x="280" y="360" width="120" height="80" as="geometry" />
        </mxCell>
        <mxCell id="23" style="edgeStyle=orthogonalEdgeStyle;html=1;exitX=0.5;exitY=1;exitDx=0;exitDy=0;entryX=0.5;entryY=0;entryDx=0;entryDy=0;strokeColor=#CC00CC;fontFamily=Courier New;fontSize=15;fontColor=#CC00CC;endArrow=classic;endFill=1;curved=1;" parent="1" source="17" target="21" edge="1">
          <mxGeometry relative="1" as="geometry" />
        </mxCell>
        <mxCell id="24" style="edgeStyle=orthogonalEdgeStyle;curved=1;html=1;exitX=0.5;exitY=1;exitDx=0;exitDy=0;entryX=0.5;entryY=0;entryDx=0;entryDy=0;strokeColor=#3333FF;fontFamily=Courier New;fontSize=15;fontColor=#FF0000;endArrow=classic;endFill=1;" parent="1" source="17" target="22" edge="1">
          <mxGeometry relative="1" as="geometry" />
        </mxCell>
        <mxCell id="33" style="edgeStyle=orthogonalEdgeStyle;curved=1;html=1;exitX=0.5;exitY=1;exitDx=0;exitDy=0;strokeColor=#FF0000;fontFamily=Courier New;fontSize=15;fontColor=#FF0000;endArrow=classic;endFill=1;" parent="1" source="17" target="32" edge="1">
          <mxGeometry relative="1" as="geometry" />
        </mxCell>
        <mxCell id="57" style="edgeStyle=none;html=1;exitX=1;exitY=0.25;exitDx=0;exitDy=0;entryX=0;entryY=0.25;entryDx=0;entryDy=0;strokeColor=#FF8000;fontColor=default;" parent="1" source="17" target="56" edge="1">
          <mxGeometry relative="1" as="geometry" />
        </mxCell>
        <mxCell id="17" value="&lt;font style=&quot;font-size: 15px;&quot;&gt;&lt;font face=&quot;Courier New&quot; style=&quot;font-size: 15px;&quot;&gt;&lt;font style=&quot;font-size: 15px;&quot;&gt;xdg portal&lt;br style=&quot;font-size: 15px;&quot;&gt;&lt;/font&gt;session start&lt;/font&gt;&lt;br style=&quot;font-size: 15px;&quot;&gt;&lt;/font&gt;" style="rounded=0;whiteSpace=wrap;html=1;fontSize=15;" parent="1" vertex="1">
          <mxGeometry x="550" y="360" width="140" height="80" as="geometry" />
        </mxCell>
        <mxCell id="18" value="" style="endArrow=classic;html=1;fontFamily=Courier New;fontSize=15;entryX=0.5;entryY=0;entryDx=0;entryDy=0;strokeColor=#FF0000;exitX=0.5;exitY=1;exitDx=0;exitDy=0;" parent="1" source="19" target="17" edge="1">
          <mxGeometry width="50" height="50" relative="1" as="geometry">
            <mxPoint x="620" y="310" as="sourcePoint" />
            <mxPoint x="619.9100000000001" y="330" as="targetPoint" />
          </mxGeometry>
        </mxCell>
        <mxCell id="19" value="payload&lt;br style=&quot;font-size: 15px;&quot;&gt;main thread" style="text;html=1;strokeColor=none;fillColor=none;align=center;verticalAlign=middle;whiteSpace=wrap;rounded=0;fontFamily=Courier New;fontSize=15;fontColor=#FF0000;fontStyle=2" parent="1" vertex="1">
          <mxGeometry x="560" y="240" width="120" height="40" as="geometry" />
        </mxCell>
        <mxCell id="35" style="edgeStyle=orthogonalEdgeStyle;curved=1;rounded=1;html=1;exitX=0.5;exitY=1;exitDx=0;exitDy=0;entryX=0.5;entryY=0;entryDx=0;entryDy=0;strokeColor=#CC00CC;fontFamily=Courier New;fontSize=15;fontColor=#CC00CC;endArrow=classic;endFill=1;elbow=vertical;" parent="1" source="21" target="32" edge="1">
          <mxGeometry relative="1" as="geometry" />
        </mxCell>
        <mxCell id="21" value="&lt;font style=&quot;font-size: 15px;&quot;&gt;&lt;font face=&quot;Courier New&quot;&gt;&lt;font style=&quot;font-size: 15px;&quot;&gt;GIO&lt;br style=&quot;font-size: 15px;&quot;&gt;&lt;/font&gt;mainloop&lt;/font&gt;&lt;br style=&quot;font-size: 15px;&quot;&gt;&lt;/font&gt;" style="rounded=0;whiteSpace=wrap;html=1;fontSize=15;" parent="1" vertex="1">
          <mxGeometry x="780" y="520" width="120" height="80" as="geometry" />
        </mxCell>
        <mxCell id="34" style="html=1;exitX=0.5;exitY=1;exitDx=0;exitDy=0;strokeColor=#3333FF;fontFamily=Courier New;fontSize=15;fontColor=#FF0000;endArrow=classic;endFill=1;edgeStyle=orthogonalEdgeStyle;elbow=vertical;rounded=1;curved=1;entryX=0.5;entryY=0;entryDx=0;entryDy=0;" parent="1" source="22" target="32" edge="1">
          <mxGeometry relative="1" as="geometry">
            <mxPoint x="700" y="830" as="targetPoint" />
          </mxGeometry>
        </mxCell>
        <mxCell id="22" value="&lt;font style=&quot;font-size: 15px;&quot;&gt;&lt;font face=&quot;Courier New&quot;&gt;&lt;font style=&quot;font-size: 15px;&quot;&gt;pipewire&lt;br style=&quot;font-size: 15px;&quot;&gt;&lt;/font&gt;screencast&lt;br style=&quot;font-size: 15px;&quot;&gt;mainloop&lt;/font&gt;&lt;br style=&quot;font-size: 15px;&quot;&gt;&lt;/font&gt;" style="rounded=0;whiteSpace=wrap;html=1;fontSize=15;" parent="1" vertex="1">
          <mxGeometry x="640" y="520" width="120" height="80" as="geometry" />
        </mxCell>
        <mxCell id="28" value="" style="endArrow=none;dashed=1;html=1;dashPattern=1 3;strokeWidth=2;fontFamily=Courier New;fontSize=14;" parent="1" edge="1">
          <mxGeometry width="50" height="50" relative="1" as="geometry">
            <mxPoint x="520" y="960" as="sourcePoint" />
            <mxPoint x="520" y="200" as="targetPoint" />
          </mxGeometry>
        </mxCell>
        <mxCell id="29" value="" style="verticalLabelPosition=bottom;html=1;verticalAlign=top;strokeWidth=1;shape=mxgraph.lean_mapping.physical_pull;pointerEvents=1;fontFamily=Courier New;fontSize=15;fontColor=#FF0000;fillColor=none;strokeColor=#3333FF;" parent="1" vertex="1">
          <mxGeometry x="740" y="510" width="30" height="30" as="geometry" />
        </mxCell>
        <mxCell id="31" value="" style="verticalLabelPosition=bottom;html=1;verticalAlign=top;strokeWidth=1;shape=mxgraph.lean_mapping.physical_pull;pointerEvents=1;fontFamily=Courier New;fontSize=15;fontColor=#CC00CC;fillColor=none;strokeColor=#CC00CC;" parent="1" vertex="1">
          <mxGeometry x="880" y="510" width="30" height="30" as="geometry" />
        </mxCell>
        <mxCell id="32" value="&lt;font style=&quot;font-size: 15px;&quot;&gt;&lt;font face=&quot;Courier New&quot; style=&quot;font-size: 15px;&quot;&gt;&lt;font style=&quot;font-size: 15px;&quot;&gt;xdg portal&lt;br style=&quot;font-size: 15px;&quot;&gt;&lt;/font&gt;session stop&lt;/font&gt;&lt;br style=&quot;font-size: 15px;&quot;&gt;&lt;/font&gt;" style="rounded=0;whiteSpace=wrap;html=1;fontSize=15;" parent="1" vertex="1">
          <mxGeometry x="550" y="840" width="140" height="80" as="geometry" />
        </mxCell>
        <mxCell id="38" value="&lt;font style=&quot;font-size: 15px;&quot;&gt;&lt;font face=&quot;Courier New&quot;&gt;&lt;span style=&quot;font-size: 15px;&quot;&gt;XShmDeatch&lt;/span&gt;&lt;font style=&quot;font-size: 15px;&quot;&gt;&lt;br style=&quot;font-size: 15px;&quot;&gt;&lt;/font&gt;Hook&lt;/font&gt;&lt;br style=&quot;font-size: 15px;&quot;&gt;&lt;/font&gt;" style="rounded=0;whiteSpace=wrap;html=1;fontSize=15;" parent="1" vertex="1">
          <mxGeometry x="280" y="840" width="120" height="80" as="geometry" />
        </mxCell>
        <mxCell id="40" value="&lt;font color=&quot;#000000&quot; style=&quot;font-size: 15px;&quot;&gt;...&lt;/font&gt;" style="text;whiteSpace=wrap;html=1;fontSize=15;fontFamily=Courier New;fontColor=#FF0000;align=center;" parent="1" vertex="1">
          <mxGeometry x="140" y="730" width="80" height="30" as="geometry" />
        </mxCell>
        <mxCell id="41" style="edgeStyle=orthogonalEdgeStyle;html=1;entryX=0;entryY=0.5;entryDx=0;entryDy=0;strokeColor=#FF0000;fontFamily=Courier New;fontSize=15;fontColor=#FF0000;rounded=0;endArrow=none;endFill=0;dashed=1;exitX=1;exitY=0.5;exitDx=0;exitDy=0;" parent="1" source="38" target="32" edge="1">
          <mxGeometry relative="1" as="geometry">
            <mxPoint x="410" y="920" as="sourcePoint" />
            <mxPoint x="440" y="879.5" as="targetPoint" />
          </mxGeometry>
        </mxCell>
        <mxCell id="44" style="edgeStyle=orthogonalEdgeStyle;curved=1;rounded=1;html=1;exitX=0.5;exitY=1;exitDx=0;exitDy=0;entryX=0.5;entryY=0;entryDx=0;entryDy=0;strokeColor=#000000;fontFamily=Courier New;fontSize=15;fontColor=#FF0000;endArrow=classic;endFill=1;elbow=vertical;" parent="1" source="42" target="4" edge="1">
          <mxGeometry relative="1" as="geometry" />
        </mxCell>
        <mxCell id="42" value="&lt;font style=&quot;font-size: 15px;&quot;&gt;&lt;font face=&quot;Courier New&quot;&gt;XShmGetImage&lt;font style=&quot;font-size: 15px;&quot;&gt;&lt;br style=&quot;font-size: 15px;&quot;&gt;&lt;/font&gt;Hook&lt;/font&gt;&lt;br style=&quot;font-size: 15px;&quot;&gt;&lt;/font&gt;" style="rounded=0;whiteSpace=wrap;html=1;fontSize=15;" parent="1" vertex="1">
          <mxGeometry x="280" y="520" width="120" height="80" as="geometry" />
        </mxCell>
        <mxCell id="46" value="&lt;span&gt;&lt;font color=&quot;#000000&quot; style=&quot;font-size: 17px;&quot;&gt;The &quot;hook&quot;&lt;/font&gt;&lt;/span&gt;" style="rounded=1;whiteSpace=wrap;html=1;strokeColor=#000000;strokeWidth=1;fontFamily=Times New Roman;fontSize=14;fontColor=#FF0000;fillColor=none;verticalAlign=middle;fontStyle=1" parent="1" vertex="1">
          <mxGeometry x="320" y="160" width="160" height="40" as="geometry" />
        </mxCell>
        <mxCell id="48" value="&lt;span&gt;&lt;font color=&quot;#000000&quot; style=&quot;font-size: 17px;&quot;&gt;The &quot;payload&quot;&lt;/font&gt;&lt;/span&gt;" style="rounded=1;whiteSpace=wrap;html=1;strokeColor=#000000;strokeWidth=1;fontFamily=Times New Roman;fontSize=14;fontColor=#FF0000;fillColor=none;verticalAlign=middle;fontStyle=1" parent="1" vertex="1">
          <mxGeometry x="600" y="160" width="160" height="40" as="geometry" />
        </mxCell>
        <mxCell id="49" value="&lt;font face=&quot;Courier New&quot;&gt;frame&lt;/font&gt;&lt;div&gt;&lt;font face=&quot;Courier New&quot;&gt;buffer&lt;/font&gt;&lt;/div&gt;" style="rounded=0;whiteSpace=wrap;html=1;strokeColor=#000000;strokeWidth=1;fontFamily=Helvetica;fontSize=15;fontColor=#000000;fillColor=default;" parent="1" vertex="1">
          <mxGeometry x="480" y="520" width="80" height="80" as="geometry" />
        </mxCell>
        <mxCell id="52" value="" style="html=1;shadow=0;dashed=0;align=center;verticalAlign=middle;shape=mxgraph.arrows2.arrow;dy=0.58;dx=27.63;flipH=1;notch=0;strokeColor=#36393d;strokeWidth=1;fontFamily=Courier New;fontSize=15;fillColor=#eeeeee;" parent="1" vertex="1">
          <mxGeometry x="570" y="540.5" width="60" height="39" as="geometry" />
        </mxCell>
        <mxCell id="53" value="" style="html=1;shadow=0;dashed=0;align=center;verticalAlign=middle;shape=mxgraph.arrows2.arrow;dy=0.58;dx=27.63;flipH=1;notch=0;strokeColor=#36393d;strokeWidth=1;fontFamily=Courier New;fontSize=15;fillColor=#eeeeee;" parent="1" vertex="1">
          <mxGeometry x="410" y="540" width="60" height="39" as="geometry" />
        </mxCell>
        <mxCell id="54" value="&lt;font face=&quot;Courier New&quot;&gt;payload&lt;br style=&quot;font-size: 15px;&quot;&gt;pw thread&lt;/font&gt;" style="text;html=1;strokeColor=none;fillColor=none;align=center;verticalAlign=middle;whiteSpace=wrap;rounded=0;fontFamily=Courier New;fontSize=15;fontColor=#3333FF;fontStyle=2" parent="1" vertex="1">
          <mxGeometry x="695" y="620" width="120" height="40" as="geometry" />
        </mxCell>
        <mxCell id="55" value="&lt;font face=&quot;Courier New&quot;&gt;payload&lt;br style=&quot;font-size: 15px;&quot;&gt;xdp thread&lt;/font&gt;" style="text;html=1;strokeColor=none;fillColor=none;align=center;verticalAlign=middle;whiteSpace=wrap;rounded=0;fontFamily=Courier New;fontSize=15;fontColor=#CC00CC;fontStyle=2" parent="1" vertex="1">
          <mxGeometry x="840" y="620" width="120" height="40" as="geometry" />
        </mxCell>
        <mxCell id="58" style="edgeStyle=none;html=1;exitX=0;exitY=0.75;exitDx=0;exitDy=0;entryX=1;entryY=0.75;entryDx=0;entryDy=0;strokeColor=#FF8000;fontColor=default;" parent="1" source="56" target="17" edge="1">
          <mxGeometry relative="1" as="geometry" />
        </mxCell>
        <mxCell id="56" value="&lt;font style=&quot;font-size: 15px;&quot;&gt;&lt;font face=&quot;Courier New&quot;&gt;x11&lt;br&gt;overlay&lt;br&gt;sanitizer&lt;/font&gt;&lt;br style=&quot;font-size: 15px;&quot;&gt;&lt;/font&gt;" style="rounded=0;whiteSpace=wrap;html=1;fontSize=15;" parent="1" vertex="1">
          <mxGeometry x="740" y="360" width="120" height="80" as="geometry" />
        </mxCell>
        <mxCell id="59" value="&lt;font&gt;x11 sanitizer&lt;br&gt;thread&lt;/font&gt;" style="text;html=1;strokeColor=none;fillColor=none;align=center;verticalAlign=middle;whiteSpace=wrap;rounded=0;fontFamily=Courier New;fontSize=15;fontColor=#FF8000;fontStyle=2" parent="1" vertex="1">
          <mxGeometry x="660" y="310" width="120" height="40" as="geometry" />
        </mxCell>
        <mxCell id="60" value="" style="verticalLabelPosition=bottom;html=1;verticalAlign=top;strokeWidth=1;shape=mxgraph.lean_mapping.physical_pull;pointerEvents=1;fontFamily=Courier New;fontSize=15;fontColor=#FF0000;fillColor=none;strokeColor=#FF8000;" parent="1" vertex="1">
          <mxGeometry x="840" y="350" width="30" height="30" as="geometry" />
        </mxCell>
      </root>
    </mxGraphModel>
  </diagram>
</mxfile>
